<mxfile host="app.diagrams.net" modified="2020-11-26T22:35:15.411Z" agent="5.0 (Windows NT 10.0; Win64; x64) AppleWebKit/537.36 (KHTML, like Gecko) Chrome/86.0.4240.198 Safari/537.36" etag="6ga85llEcrsgfXSqWhnP" version="13.10.4" type="github">
  <diagram id="LBIdM7k2ewunctjO_qqh" name="Page-1">
    <mxGraphModel dx="252" dy="882" grid="1" gridSize="10" guides="1" tooltips="1" connect="1" arrows="1" fold="1" page="1" pageScale="1" pageWidth="850" pageHeight="1100" math="0" shadow="0">
      <root>
        <mxCell id="0" />
        <mxCell id="1" parent="0" />
        <mxCell id="zzW63VaopKRDB87rKUMI-11" value="Ali.Country" style="shape=table;startSize=30;container=1;collapsible=1;childLayout=tableLayout;fixedRows=1;rowLines=0;fontStyle=1;align=center;resizeLast=1;" vertex="1" parent="1">
          <mxGeometry x="1520" y="440" width="180" height="120" as="geometry" />
        </mxCell>
        <mxCell id="zzW63VaopKRDB87rKUMI-12" value="" style="shape=partialRectangle;collapsible=0;dropTarget=0;pointerEvents=0;fillColor=none;top=0;left=0;bottom=1;right=0;points=[[0,0.5],[1,0.5]];portConstraint=eastwest;" vertex="1" parent="zzW63VaopKRDB87rKUMI-11">
          <mxGeometry y="30" width="180" height="30" as="geometry" />
        </mxCell>
        <mxCell id="zzW63VaopKRDB87rKUMI-13" value="PK" style="shape=partialRectangle;connectable=0;fillColor=none;top=0;left=0;bottom=0;right=0;fontStyle=1;overflow=hidden;" vertex="1" parent="zzW63VaopKRDB87rKUMI-12">
          <mxGeometry width="30" height="30" as="geometry" />
        </mxCell>
        <mxCell id="zzW63VaopKRDB87rKUMI-14" value="country_id" style="shape=partialRectangle;connectable=0;fillColor=none;top=0;left=0;bottom=0;right=0;align=left;spacingLeft=6;fontStyle=1;overflow=hidden;" vertex="1" parent="zzW63VaopKRDB87rKUMI-12">
          <mxGeometry x="30" width="150" height="30" as="geometry" />
        </mxCell>
        <mxCell id="zzW63VaopKRDB87rKUMI-15" value="" style="shape=partialRectangle;collapsible=0;dropTarget=0;pointerEvents=0;fillColor=none;top=0;left=0;bottom=0;right=0;points=[[0,0.5],[1,0.5]];portConstraint=eastwest;" vertex="1" parent="zzW63VaopKRDB87rKUMI-11">
          <mxGeometry y="60" width="180" height="30" as="geometry" />
        </mxCell>
        <mxCell id="zzW63VaopKRDB87rKUMI-16" value="" style="shape=partialRectangle;connectable=0;fillColor=none;top=0;left=0;bottom=0;right=0;editable=1;overflow=hidden;" vertex="1" parent="zzW63VaopKRDB87rKUMI-15">
          <mxGeometry width="30" height="30" as="geometry" />
        </mxCell>
        <mxCell id="zzW63VaopKRDB87rKUMI-17" value="country_name" style="shape=partialRectangle;connectable=0;fillColor=none;top=0;left=0;bottom=0;right=0;align=left;spacingLeft=6;overflow=hidden;fontStyle=1" vertex="1" parent="zzW63VaopKRDB87rKUMI-15">
          <mxGeometry x="30" width="150" height="30" as="geometry" />
        </mxCell>
        <mxCell id="zzW63VaopKRDB87rKUMI-18" value="" style="shape=partialRectangle;collapsible=0;dropTarget=0;pointerEvents=0;fillColor=none;top=0;left=0;bottom=0;right=0;points=[[0,0.5],[1,0.5]];portConstraint=eastwest;" vertex="1" parent="zzW63VaopKRDB87rKUMI-11">
          <mxGeometry y="90" width="180" height="30" as="geometry" />
        </mxCell>
        <mxCell id="zzW63VaopKRDB87rKUMI-19" value="FK" style="shape=partialRectangle;connectable=0;fillColor=none;top=0;left=0;bottom=0;right=0;editable=1;overflow=hidden;fontStyle=1" vertex="1" parent="zzW63VaopKRDB87rKUMI-18">
          <mxGeometry width="30" height="30" as="geometry" />
        </mxCell>
        <mxCell id="zzW63VaopKRDB87rKUMI-20" value="region_id" style="shape=partialRectangle;connectable=0;fillColor=none;top=0;left=0;bottom=0;right=0;align=left;spacingLeft=6;overflow=hidden;fontStyle=1" vertex="1" parent="zzW63VaopKRDB87rKUMI-18">
          <mxGeometry x="30" width="150" height="30" as="geometry" />
        </mxCell>
        <mxCell id="zzW63VaopKRDB87rKUMI-24" value="Ali.Job" style="shape=table;startSize=30;container=1;collapsible=1;childLayout=tableLayout;fixedRows=1;rowLines=0;fontStyle=1;align=center;resizeLast=1;" vertex="1" parent="1">
          <mxGeometry x="940" y="580" width="180" height="150" as="geometry" />
        </mxCell>
        <mxCell id="zzW63VaopKRDB87rKUMI-25" value="" style="shape=partialRectangle;collapsible=0;dropTarget=0;pointerEvents=0;fillColor=none;top=0;left=0;bottom=1;right=0;points=[[0,0.5],[1,0.5]];portConstraint=eastwest;" vertex="1" parent="zzW63VaopKRDB87rKUMI-24">
          <mxGeometry y="30" width="180" height="30" as="geometry" />
        </mxCell>
        <mxCell id="zzW63VaopKRDB87rKUMI-26" value="PK" style="shape=partialRectangle;connectable=0;fillColor=none;top=0;left=0;bottom=0;right=0;fontStyle=1;overflow=hidden;" vertex="1" parent="zzW63VaopKRDB87rKUMI-25">
          <mxGeometry width="30" height="30" as="geometry" />
        </mxCell>
        <mxCell id="zzW63VaopKRDB87rKUMI-27" value="job_id" style="shape=partialRectangle;connectable=0;fillColor=none;top=0;left=0;bottom=0;right=0;align=left;spacingLeft=6;fontStyle=1;overflow=hidden;" vertex="1" parent="zzW63VaopKRDB87rKUMI-25">
          <mxGeometry x="30" width="150" height="30" as="geometry" />
        </mxCell>
        <mxCell id="zzW63VaopKRDB87rKUMI-28" value="" style="shape=partialRectangle;collapsible=0;dropTarget=0;pointerEvents=0;fillColor=none;top=0;left=0;bottom=0;right=0;points=[[0,0.5],[1,0.5]];portConstraint=eastwest;" vertex="1" parent="zzW63VaopKRDB87rKUMI-24">
          <mxGeometry y="60" width="180" height="30" as="geometry" />
        </mxCell>
        <mxCell id="zzW63VaopKRDB87rKUMI-29" value="" style="shape=partialRectangle;connectable=0;fillColor=none;top=0;left=0;bottom=0;right=0;editable=1;overflow=hidden;" vertex="1" parent="zzW63VaopKRDB87rKUMI-28">
          <mxGeometry width="30" height="30" as="geometry" />
        </mxCell>
        <mxCell id="zzW63VaopKRDB87rKUMI-30" value="job_title" style="shape=partialRectangle;connectable=0;fillColor=none;top=0;left=0;bottom=0;right=0;align=left;spacingLeft=6;overflow=hidden;fontStyle=1" vertex="1" parent="zzW63VaopKRDB87rKUMI-28">
          <mxGeometry x="30" width="150" height="30" as="geometry" />
        </mxCell>
        <mxCell id="zzW63VaopKRDB87rKUMI-31" value="" style="shape=partialRectangle;collapsible=0;dropTarget=0;pointerEvents=0;fillColor=none;top=0;left=0;bottom=0;right=0;points=[[0,0.5],[1,0.5]];portConstraint=eastwest;" vertex="1" parent="zzW63VaopKRDB87rKUMI-24">
          <mxGeometry y="90" width="180" height="30" as="geometry" />
        </mxCell>
        <mxCell id="zzW63VaopKRDB87rKUMI-32" value="" style="shape=partialRectangle;connectable=0;fillColor=none;top=0;left=0;bottom=0;right=0;editable=1;overflow=hidden;" vertex="1" parent="zzW63VaopKRDB87rKUMI-31">
          <mxGeometry width="30" height="30" as="geometry" />
        </mxCell>
        <mxCell id="zzW63VaopKRDB87rKUMI-33" value="min_salary" style="shape=partialRectangle;connectable=0;fillColor=none;top=0;left=0;bottom=0;right=0;align=left;spacingLeft=6;overflow=hidden;fontStyle=1" vertex="1" parent="zzW63VaopKRDB87rKUMI-31">
          <mxGeometry x="30" width="150" height="30" as="geometry" />
        </mxCell>
        <mxCell id="zzW63VaopKRDB87rKUMI-34" value="" style="shape=partialRectangle;collapsible=0;dropTarget=0;pointerEvents=0;fillColor=none;top=0;left=0;bottom=0;right=0;points=[[0,0.5],[1,0.5]];portConstraint=eastwest;" vertex="1" parent="zzW63VaopKRDB87rKUMI-24">
          <mxGeometry y="120" width="180" height="30" as="geometry" />
        </mxCell>
        <mxCell id="zzW63VaopKRDB87rKUMI-35" value="" style="shape=partialRectangle;connectable=0;fillColor=none;top=0;left=0;bottom=0;right=0;editable=1;overflow=hidden;" vertex="1" parent="zzW63VaopKRDB87rKUMI-34">
          <mxGeometry width="30" height="30" as="geometry" />
        </mxCell>
        <mxCell id="zzW63VaopKRDB87rKUMI-36" value="max_salary" style="shape=partialRectangle;connectable=0;fillColor=none;top=0;left=0;bottom=0;right=0;align=left;spacingLeft=6;overflow=hidden;fontStyle=1" vertex="1" parent="zzW63VaopKRDB87rKUMI-34">
          <mxGeometry x="30" width="150" height="30" as="geometry" />
        </mxCell>
        <mxCell id="zzW63VaopKRDB87rKUMI-37" value="Ali.Job_History" style="shape=table;startSize=30;container=1;collapsible=1;childLayout=tableLayout;fixedRows=1;rowLines=0;fontStyle=1;align=center;resizeLast=1;" vertex="1" parent="1">
          <mxGeometry x="940" y="280" width="180" height="180" as="geometry" />
        </mxCell>
        <mxCell id="zzW63VaopKRDB87rKUMI-38" value="" style="shape=partialRectangle;collapsible=0;dropTarget=0;pointerEvents=0;fillColor=none;top=0;left=0;bottom=1;right=0;points=[[0,0.5],[1,0.5]];portConstraint=eastwest;" vertex="1" parent="zzW63VaopKRDB87rKUMI-37">
          <mxGeometry y="30" width="180" height="30" as="geometry" />
        </mxCell>
        <mxCell id="zzW63VaopKRDB87rKUMI-39" value="PK" style="shape=partialRectangle;connectable=0;fillColor=none;top=0;left=0;bottom=0;right=0;fontStyle=1;overflow=hidden;" vertex="1" parent="zzW63VaopKRDB87rKUMI-38">
          <mxGeometry width="30" height="30" as="geometry" />
        </mxCell>
        <mxCell id="zzW63VaopKRDB87rKUMI-40" value="employee_id" style="shape=partialRectangle;connectable=0;fillColor=none;top=0;left=0;bottom=0;right=0;align=left;spacingLeft=6;fontStyle=1;overflow=hidden;" vertex="1" parent="zzW63VaopKRDB87rKUMI-38">
          <mxGeometry x="30" width="150" height="30" as="geometry" />
        </mxCell>
        <mxCell id="zzW63VaopKRDB87rKUMI-41" value="" style="shape=partialRectangle;collapsible=0;dropTarget=0;pointerEvents=0;fillColor=none;top=0;left=0;bottom=0;right=0;points=[[0,0.5],[1,0.5]];portConstraint=eastwest;" vertex="1" parent="zzW63VaopKRDB87rKUMI-37">
          <mxGeometry y="60" width="180" height="30" as="geometry" />
        </mxCell>
        <mxCell id="zzW63VaopKRDB87rKUMI-42" value="" style="shape=partialRectangle;connectable=0;fillColor=none;top=0;left=0;bottom=0;right=0;editable=1;overflow=hidden;" vertex="1" parent="zzW63VaopKRDB87rKUMI-41">
          <mxGeometry width="30" height="30" as="geometry" />
        </mxCell>
        <mxCell id="zzW63VaopKRDB87rKUMI-43" value="start_date" style="shape=partialRectangle;connectable=0;fillColor=none;top=0;left=0;bottom=0;right=0;align=left;spacingLeft=6;overflow=hidden;fontStyle=1" vertex="1" parent="zzW63VaopKRDB87rKUMI-41">
          <mxGeometry x="30" width="150" height="30" as="geometry" />
        </mxCell>
        <mxCell id="zzW63VaopKRDB87rKUMI-44" value="" style="shape=partialRectangle;collapsible=0;dropTarget=0;pointerEvents=0;fillColor=none;top=0;left=0;bottom=0;right=0;points=[[0,0.5],[1,0.5]];portConstraint=eastwest;" vertex="1" parent="zzW63VaopKRDB87rKUMI-37">
          <mxGeometry y="90" width="180" height="30" as="geometry" />
        </mxCell>
        <mxCell id="zzW63VaopKRDB87rKUMI-45" value="" style="shape=partialRectangle;connectable=0;fillColor=none;top=0;left=0;bottom=0;right=0;editable=1;overflow=hidden;" vertex="1" parent="zzW63VaopKRDB87rKUMI-44">
          <mxGeometry width="30" height="30" as="geometry" />
        </mxCell>
        <mxCell id="zzW63VaopKRDB87rKUMI-46" value="end_date" style="shape=partialRectangle;connectable=0;fillColor=none;top=0;left=0;bottom=0;right=0;align=left;spacingLeft=6;overflow=hidden;fontStyle=1" vertex="1" parent="zzW63VaopKRDB87rKUMI-44">
          <mxGeometry x="30" width="150" height="30" as="geometry" />
        </mxCell>
        <mxCell id="zzW63VaopKRDB87rKUMI-47" value="" style="shape=partialRectangle;collapsible=0;dropTarget=0;pointerEvents=0;fillColor=none;top=0;left=0;bottom=0;right=0;points=[[0,0.5],[1,0.5]];portConstraint=eastwest;" vertex="1" parent="zzW63VaopKRDB87rKUMI-37">
          <mxGeometry y="120" width="180" height="30" as="geometry" />
        </mxCell>
        <mxCell id="zzW63VaopKRDB87rKUMI-48" value="FK" style="shape=partialRectangle;connectable=0;fillColor=none;top=0;left=0;bottom=0;right=0;editable=1;overflow=hidden;fontStyle=1" vertex="1" parent="zzW63VaopKRDB87rKUMI-47">
          <mxGeometry width="30" height="30" as="geometry" />
        </mxCell>
        <mxCell id="zzW63VaopKRDB87rKUMI-49" value="job_id" style="shape=partialRectangle;connectable=0;fillColor=none;top=0;left=0;bottom=0;right=0;align=left;spacingLeft=6;overflow=hidden;fontStyle=1" vertex="1" parent="zzW63VaopKRDB87rKUMI-47">
          <mxGeometry x="30" width="150" height="30" as="geometry" />
        </mxCell>
        <mxCell id="zzW63VaopKRDB87rKUMI-50" value="Ali.Department" style="shape=table;startSize=30;container=1;collapsible=1;childLayout=tableLayout;fixedRows=1;rowLines=0;fontStyle=1;align=center;resizeLast=1;" vertex="1" parent="1">
          <mxGeometry x="1220" y="180" width="180" height="150" as="geometry" />
        </mxCell>
        <mxCell id="zzW63VaopKRDB87rKUMI-51" value="" style="shape=partialRectangle;collapsible=0;dropTarget=0;pointerEvents=0;fillColor=none;top=0;left=0;bottom=1;right=0;points=[[0,0.5],[1,0.5]];portConstraint=eastwest;" vertex="1" parent="zzW63VaopKRDB87rKUMI-50">
          <mxGeometry y="30" width="180" height="30" as="geometry" />
        </mxCell>
        <mxCell id="zzW63VaopKRDB87rKUMI-52" value="PK" style="shape=partialRectangle;connectable=0;fillColor=none;top=0;left=0;bottom=0;right=0;fontStyle=1;overflow=hidden;" vertex="1" parent="zzW63VaopKRDB87rKUMI-51">
          <mxGeometry width="30" height="30" as="geometry" />
        </mxCell>
        <mxCell id="zzW63VaopKRDB87rKUMI-53" value="department_id" style="shape=partialRectangle;connectable=0;fillColor=none;top=0;left=0;bottom=0;right=0;align=left;spacingLeft=6;fontStyle=1;overflow=hidden;" vertex="1" parent="zzW63VaopKRDB87rKUMI-51">
          <mxGeometry x="30" width="150" height="30" as="geometry" />
        </mxCell>
        <mxCell id="zzW63VaopKRDB87rKUMI-54" value="" style="shape=partialRectangle;collapsible=0;dropTarget=0;pointerEvents=0;fillColor=none;top=0;left=0;bottom=0;right=0;points=[[0,0.5],[1,0.5]];portConstraint=eastwest;" vertex="1" parent="zzW63VaopKRDB87rKUMI-50">
          <mxGeometry y="60" width="180" height="30" as="geometry" />
        </mxCell>
        <mxCell id="zzW63VaopKRDB87rKUMI-55" value="" style="shape=partialRectangle;connectable=0;fillColor=none;top=0;left=0;bottom=0;right=0;editable=1;overflow=hidden;" vertex="1" parent="zzW63VaopKRDB87rKUMI-54">
          <mxGeometry width="30" height="30" as="geometry" />
        </mxCell>
        <mxCell id="zzW63VaopKRDB87rKUMI-56" value="department_name" style="shape=partialRectangle;connectable=0;fillColor=none;top=0;left=0;bottom=0;right=0;align=left;spacingLeft=6;overflow=hidden;fontStyle=1" vertex="1" parent="zzW63VaopKRDB87rKUMI-54">
          <mxGeometry x="30" width="150" height="30" as="geometry" />
        </mxCell>
        <mxCell id="zzW63VaopKRDB87rKUMI-57" value="" style="shape=partialRectangle;collapsible=0;dropTarget=0;pointerEvents=0;fillColor=none;top=0;left=0;bottom=0;right=0;points=[[0,0.5],[1,0.5]];portConstraint=eastwest;" vertex="1" parent="zzW63VaopKRDB87rKUMI-50">
          <mxGeometry y="90" width="180" height="30" as="geometry" />
        </mxCell>
        <mxCell id="zzW63VaopKRDB87rKUMI-58" value="" style="shape=partialRectangle;connectable=0;fillColor=none;top=0;left=0;bottom=0;right=0;editable=1;overflow=hidden;" vertex="1" parent="zzW63VaopKRDB87rKUMI-57">
          <mxGeometry width="30" height="30" as="geometry" />
        </mxCell>
        <mxCell id="zzW63VaopKRDB87rKUMI-59" value="manger_id" style="shape=partialRectangle;connectable=0;fillColor=none;top=0;left=0;bottom=0;right=0;align=left;spacingLeft=6;overflow=hidden;fontStyle=1" vertex="1" parent="zzW63VaopKRDB87rKUMI-57">
          <mxGeometry x="30" width="150" height="30" as="geometry" />
        </mxCell>
        <mxCell id="zzW63VaopKRDB87rKUMI-60" value="" style="shape=partialRectangle;collapsible=0;dropTarget=0;pointerEvents=0;fillColor=none;top=0;left=0;bottom=0;right=0;points=[[0,0.5],[1,0.5]];portConstraint=eastwest;" vertex="1" parent="zzW63VaopKRDB87rKUMI-50">
          <mxGeometry y="120" width="180" height="30" as="geometry" />
        </mxCell>
        <mxCell id="zzW63VaopKRDB87rKUMI-61" value="FK" style="shape=partialRectangle;connectable=0;fillColor=none;top=0;left=0;bottom=0;right=0;editable=1;overflow=hidden;fontStyle=1" vertex="1" parent="zzW63VaopKRDB87rKUMI-60">
          <mxGeometry width="30" height="30" as="geometry" />
        </mxCell>
        <mxCell id="zzW63VaopKRDB87rKUMI-62" value="location_id" style="shape=partialRectangle;connectable=0;fillColor=none;top=0;left=0;bottom=0;right=0;align=left;spacingLeft=6;overflow=hidden;fontStyle=1" vertex="1" parent="zzW63VaopKRDB87rKUMI-60">
          <mxGeometry x="30" width="150" height="30" as="geometry" />
        </mxCell>
        <mxCell id="zzW63VaopKRDB87rKUMI-63" value="Ali.Location" style="shape=table;startSize=30;container=1;collapsible=1;childLayout=tableLayout;fixedRows=1;rowLines=0;fontStyle=1;align=center;resizeLast=1;" vertex="1" parent="1">
          <mxGeometry x="1520" y="180" width="180" height="210" as="geometry" />
        </mxCell>
        <mxCell id="zzW63VaopKRDB87rKUMI-64" value="" style="shape=partialRectangle;collapsible=0;dropTarget=0;pointerEvents=0;fillColor=none;top=0;left=0;bottom=1;right=0;points=[[0,0.5],[1,0.5]];portConstraint=eastwest;" vertex="1" parent="zzW63VaopKRDB87rKUMI-63">
          <mxGeometry y="30" width="180" height="30" as="geometry" />
        </mxCell>
        <mxCell id="zzW63VaopKRDB87rKUMI-65" value="PK" style="shape=partialRectangle;connectable=0;fillColor=none;top=0;left=0;bottom=0;right=0;fontStyle=1;overflow=hidden;" vertex="1" parent="zzW63VaopKRDB87rKUMI-64">
          <mxGeometry width="30" height="30" as="geometry" />
        </mxCell>
        <mxCell id="zzW63VaopKRDB87rKUMI-66" value="location_id" style="shape=partialRectangle;connectable=0;fillColor=none;top=0;left=0;bottom=0;right=0;align=left;spacingLeft=6;fontStyle=1;overflow=hidden;" vertex="1" parent="zzW63VaopKRDB87rKUMI-64">
          <mxGeometry x="30" width="150" height="30" as="geometry" />
        </mxCell>
        <mxCell id="zzW63VaopKRDB87rKUMI-67" value="" style="shape=partialRectangle;collapsible=0;dropTarget=0;pointerEvents=0;fillColor=none;top=0;left=0;bottom=0;right=0;points=[[0,0.5],[1,0.5]];portConstraint=eastwest;" vertex="1" parent="zzW63VaopKRDB87rKUMI-63">
          <mxGeometry y="60" width="180" height="30" as="geometry" />
        </mxCell>
        <mxCell id="zzW63VaopKRDB87rKUMI-68" value="" style="shape=partialRectangle;connectable=0;fillColor=none;top=0;left=0;bottom=0;right=0;editable=1;overflow=hidden;" vertex="1" parent="zzW63VaopKRDB87rKUMI-67">
          <mxGeometry width="30" height="30" as="geometry" />
        </mxCell>
        <mxCell id="zzW63VaopKRDB87rKUMI-69" value="street_address" style="shape=partialRectangle;connectable=0;fillColor=none;top=0;left=0;bottom=0;right=0;align=left;spacingLeft=6;overflow=hidden;fontStyle=1" vertex="1" parent="zzW63VaopKRDB87rKUMI-67">
          <mxGeometry x="30" width="150" height="30" as="geometry" />
        </mxCell>
        <mxCell id="zzW63VaopKRDB87rKUMI-70" value="" style="shape=partialRectangle;collapsible=0;dropTarget=0;pointerEvents=0;fillColor=none;top=0;left=0;bottom=0;right=0;points=[[0,0.5],[1,0.5]];portConstraint=eastwest;" vertex="1" parent="zzW63VaopKRDB87rKUMI-63">
          <mxGeometry y="90" width="180" height="30" as="geometry" />
        </mxCell>
        <mxCell id="zzW63VaopKRDB87rKUMI-71" value="" style="shape=partialRectangle;connectable=0;fillColor=none;top=0;left=0;bottom=0;right=0;editable=1;overflow=hidden;" vertex="1" parent="zzW63VaopKRDB87rKUMI-70">
          <mxGeometry width="30" height="30" as="geometry" />
        </mxCell>
        <mxCell id="zzW63VaopKRDB87rKUMI-72" value="postal_code" style="shape=partialRectangle;connectable=0;fillColor=none;top=0;left=0;bottom=0;right=0;align=left;spacingLeft=6;overflow=hidden;fontStyle=1" vertex="1" parent="zzW63VaopKRDB87rKUMI-70">
          <mxGeometry x="30" width="150" height="30" as="geometry" />
        </mxCell>
        <mxCell id="zzW63VaopKRDB87rKUMI-73" value="" style="shape=partialRectangle;collapsible=0;dropTarget=0;pointerEvents=0;fillColor=none;top=0;left=0;bottom=0;right=0;points=[[0,0.5],[1,0.5]];portConstraint=eastwest;" vertex="1" parent="zzW63VaopKRDB87rKUMI-63">
          <mxGeometry y="120" width="180" height="30" as="geometry" />
        </mxCell>
        <mxCell id="zzW63VaopKRDB87rKUMI-74" value="" style="shape=partialRectangle;connectable=0;fillColor=none;top=0;left=0;bottom=0;right=0;editable=1;overflow=hidden;" vertex="1" parent="zzW63VaopKRDB87rKUMI-73">
          <mxGeometry width="30" height="30" as="geometry" />
        </mxCell>
        <mxCell id="zzW63VaopKRDB87rKUMI-75" value="city" style="shape=partialRectangle;connectable=0;fillColor=none;top=0;left=0;bottom=0;right=0;align=left;spacingLeft=6;overflow=hidden;fontStyle=1" vertex="1" parent="zzW63VaopKRDB87rKUMI-73">
          <mxGeometry x="30" width="150" height="30" as="geometry" />
        </mxCell>
        <mxCell id="zzW63VaopKRDB87rKUMI-76" value="Ali.Employee" style="shape=table;startSize=30;container=1;collapsible=1;childLayout=tableLayout;fixedRows=1;rowLines=0;fontStyle=1;align=center;resizeLast=1;" vertex="1" parent="1">
          <mxGeometry x="1220" y="400" width="180" height="390" as="geometry" />
        </mxCell>
        <mxCell id="zzW63VaopKRDB87rKUMI-77" value="" style="shape=partialRectangle;collapsible=0;dropTarget=0;pointerEvents=0;fillColor=none;top=0;left=0;bottom=1;right=0;points=[[0,0.5],[1,0.5]];portConstraint=eastwest;" vertex="1" parent="zzW63VaopKRDB87rKUMI-76">
          <mxGeometry y="30" width="180" height="30" as="geometry" />
        </mxCell>
        <mxCell id="zzW63VaopKRDB87rKUMI-78" value="PK" style="shape=partialRectangle;connectable=0;fillColor=none;top=0;left=0;bottom=0;right=0;fontStyle=1;overflow=hidden;" vertex="1" parent="zzW63VaopKRDB87rKUMI-77">
          <mxGeometry width="30" height="30" as="geometry" />
        </mxCell>
        <mxCell id="zzW63VaopKRDB87rKUMI-79" value="employee_id" style="shape=partialRectangle;connectable=0;fillColor=none;top=0;left=0;bottom=0;right=0;align=left;spacingLeft=6;fontStyle=1;overflow=hidden;" vertex="1" parent="zzW63VaopKRDB87rKUMI-77">
          <mxGeometry x="30" width="150" height="30" as="geometry" />
        </mxCell>
        <mxCell id="zzW63VaopKRDB87rKUMI-80" value="" style="shape=partialRectangle;collapsible=0;dropTarget=0;pointerEvents=0;fillColor=none;top=0;left=0;bottom=0;right=0;points=[[0,0.5],[1,0.5]];portConstraint=eastwest;" vertex="1" parent="zzW63VaopKRDB87rKUMI-76">
          <mxGeometry y="60" width="180" height="30" as="geometry" />
        </mxCell>
        <mxCell id="zzW63VaopKRDB87rKUMI-81" value="" style="shape=partialRectangle;connectable=0;fillColor=none;top=0;left=0;bottom=0;right=0;editable=1;overflow=hidden;" vertex="1" parent="zzW63VaopKRDB87rKUMI-80">
          <mxGeometry width="30" height="30" as="geometry" />
        </mxCell>
        <mxCell id="zzW63VaopKRDB87rKUMI-82" value="first_name" style="shape=partialRectangle;connectable=0;fillColor=none;top=0;left=0;bottom=0;right=0;align=left;spacingLeft=6;overflow=hidden;fontStyle=1" vertex="1" parent="zzW63VaopKRDB87rKUMI-80">
          <mxGeometry x="30" width="150" height="30" as="geometry" />
        </mxCell>
        <mxCell id="zzW63VaopKRDB87rKUMI-139" value="" style="shape=partialRectangle;collapsible=0;dropTarget=0;pointerEvents=0;fillColor=none;top=0;left=0;bottom=0;right=0;points=[[0,0.5],[1,0.5]];portConstraint=eastwest;" vertex="1" parent="zzW63VaopKRDB87rKUMI-76">
          <mxGeometry y="90" width="180" height="30" as="geometry" />
        </mxCell>
        <mxCell id="zzW63VaopKRDB87rKUMI-140" value="" style="shape=partialRectangle;connectable=0;fillColor=none;top=0;left=0;bottom=0;right=0;editable=1;overflow=hidden;" vertex="1" parent="zzW63VaopKRDB87rKUMI-139">
          <mxGeometry width="30" height="30" as="geometry" />
        </mxCell>
        <mxCell id="zzW63VaopKRDB87rKUMI-141" value="first_name" style="shape=partialRectangle;connectable=0;fillColor=none;top=0;left=0;bottom=0;right=0;align=left;spacingLeft=6;overflow=hidden;fontStyle=1" vertex="1" parent="zzW63VaopKRDB87rKUMI-139">
          <mxGeometry x="30" width="150" height="30" as="geometry" />
        </mxCell>
        <mxCell id="zzW63VaopKRDB87rKUMI-83" value="" style="shape=partialRectangle;collapsible=0;dropTarget=0;pointerEvents=0;fillColor=none;top=0;left=0;bottom=0;right=0;points=[[0,0.5],[1,0.5]];portConstraint=eastwest;" vertex="1" parent="zzW63VaopKRDB87rKUMI-76">
          <mxGeometry y="120" width="180" height="30" as="geometry" />
        </mxCell>
        <mxCell id="zzW63VaopKRDB87rKUMI-84" value="" style="shape=partialRectangle;connectable=0;fillColor=none;top=0;left=0;bottom=0;right=0;editable=1;overflow=hidden;" vertex="1" parent="zzW63VaopKRDB87rKUMI-83">
          <mxGeometry width="30" height="30" as="geometry" />
        </mxCell>
        <mxCell id="zzW63VaopKRDB87rKUMI-85" value="last_name" style="shape=partialRectangle;connectable=0;fillColor=none;top=0;left=0;bottom=0;right=0;align=left;spacingLeft=6;overflow=hidden;fontStyle=1" vertex="1" parent="zzW63VaopKRDB87rKUMI-83">
          <mxGeometry x="30" width="150" height="30" as="geometry" />
        </mxCell>
        <mxCell id="zzW63VaopKRDB87rKUMI-86" value="" style="shape=partialRectangle;collapsible=0;dropTarget=0;pointerEvents=0;fillColor=none;top=0;left=0;bottom=0;right=0;points=[[0,0.5],[1,0.5]];portConstraint=eastwest;" vertex="1" parent="zzW63VaopKRDB87rKUMI-76">
          <mxGeometry y="150" width="180" height="30" as="geometry" />
        </mxCell>
        <mxCell id="zzW63VaopKRDB87rKUMI-87" value="" style="shape=partialRectangle;connectable=0;fillColor=none;top=0;left=0;bottom=0;right=0;editable=1;overflow=hidden;" vertex="1" parent="zzW63VaopKRDB87rKUMI-86">
          <mxGeometry width="30" height="30" as="geometry" />
        </mxCell>
        <mxCell id="zzW63VaopKRDB87rKUMI-88" value="phone_number" style="shape=partialRectangle;connectable=0;fillColor=none;top=0;left=0;bottom=0;right=0;align=left;spacingLeft=6;overflow=hidden;fontStyle=1" vertex="1" parent="zzW63VaopKRDB87rKUMI-86">
          <mxGeometry x="30" width="150" height="30" as="geometry" />
        </mxCell>
        <mxCell id="zzW63VaopKRDB87rKUMI-136" value="" style="shape=partialRectangle;collapsible=0;dropTarget=0;pointerEvents=0;fillColor=none;top=0;left=0;bottom=0;right=0;points=[[0,0.5],[1,0.5]];portConstraint=eastwest;" vertex="1" parent="zzW63VaopKRDB87rKUMI-76">
          <mxGeometry y="180" width="180" height="30" as="geometry" />
        </mxCell>
        <mxCell id="zzW63VaopKRDB87rKUMI-137" value="" style="shape=partialRectangle;connectable=0;fillColor=none;top=0;left=0;bottom=0;right=0;editable=1;overflow=hidden;" vertex="1" parent="zzW63VaopKRDB87rKUMI-136">
          <mxGeometry width="30" height="30" as="geometry" />
        </mxCell>
        <mxCell id="zzW63VaopKRDB87rKUMI-138" value="phone_number" style="shape=partialRectangle;connectable=0;fillColor=none;top=0;left=0;bottom=0;right=0;align=left;spacingLeft=6;overflow=hidden;fontStyle=1" vertex="1" parent="zzW63VaopKRDB87rKUMI-136">
          <mxGeometry x="30" width="150" height="30" as="geometry" />
        </mxCell>
        <mxCell id="zzW63VaopKRDB87rKUMI-135" value="" style="edgeStyle=entityRelationEdgeStyle;fontSize=12;html=1;endArrow=ERoneToMany;entryX=1;entryY=0.5;entryDx=0;entryDy=0;exitX=1;exitY=0.5;exitDx=0;exitDy=0;" edge="1" parent="zzW63VaopKRDB87rKUMI-76" source="zzW63VaopKRDB87rKUMI-83" target="zzW63VaopKRDB87rKUMI-77">
          <mxGeometry width="100" height="100" relative="1" as="geometry">
            <mxPoint x="180" y="210" as="sourcePoint" />
            <mxPoint x="220" y="50" as="targetPoint" />
          </mxGeometry>
        </mxCell>
        <mxCell id="zzW63VaopKRDB87rKUMI-89" value="Ali.Region" style="shape=table;startSize=30;container=1;collapsible=1;childLayout=tableLayout;fixedRows=1;rowLines=0;fontStyle=1;align=center;resizeLast=1;" vertex="1" parent="1">
          <mxGeometry x="1520" y="640" width="180" height="90" as="geometry" />
        </mxCell>
        <mxCell id="zzW63VaopKRDB87rKUMI-90" value="" style="shape=partialRectangle;collapsible=0;dropTarget=0;pointerEvents=0;fillColor=none;top=0;left=0;bottom=1;right=0;points=[[0,0.5],[1,0.5]];portConstraint=eastwest;" vertex="1" parent="zzW63VaopKRDB87rKUMI-89">
          <mxGeometry y="30" width="180" height="30" as="geometry" />
        </mxCell>
        <mxCell id="zzW63VaopKRDB87rKUMI-91" value="PK" style="shape=partialRectangle;connectable=0;fillColor=none;top=0;left=0;bottom=0;right=0;fontStyle=1;overflow=hidden;" vertex="1" parent="zzW63VaopKRDB87rKUMI-90">
          <mxGeometry width="30" height="30" as="geometry" />
        </mxCell>
        <mxCell id="zzW63VaopKRDB87rKUMI-92" value="region_id" style="shape=partialRectangle;connectable=0;fillColor=none;top=0;left=0;bottom=0;right=0;align=left;spacingLeft=6;fontStyle=1;overflow=hidden;" vertex="1" parent="zzW63VaopKRDB87rKUMI-90">
          <mxGeometry x="30" width="150" height="30" as="geometry" />
        </mxCell>
        <mxCell id="zzW63VaopKRDB87rKUMI-93" value="" style="shape=partialRectangle;collapsible=0;dropTarget=0;pointerEvents=0;fillColor=none;top=0;left=0;bottom=0;right=0;points=[[0,0.5],[1,0.5]];portConstraint=eastwest;" vertex="1" parent="zzW63VaopKRDB87rKUMI-89">
          <mxGeometry y="60" width="180" height="30" as="geometry" />
        </mxCell>
        <mxCell id="zzW63VaopKRDB87rKUMI-94" value="FK" style="shape=partialRectangle;connectable=0;fillColor=none;top=0;left=0;bottom=0;right=0;editable=1;overflow=hidden;fontStyle=1" vertex="1" parent="zzW63VaopKRDB87rKUMI-93">
          <mxGeometry width="30" height="30" as="geometry" />
        </mxCell>
        <mxCell id="zzW63VaopKRDB87rKUMI-95" value="region_name" style="shape=partialRectangle;connectable=0;fillColor=none;top=0;left=0;bottom=0;right=0;align=left;spacingLeft=6;overflow=hidden;fontStyle=1" vertex="1" parent="zzW63VaopKRDB87rKUMI-93">
          <mxGeometry x="30" width="150" height="30" as="geometry" />
        </mxCell>
        <mxCell id="zzW63VaopKRDB87rKUMI-106" value="state_province" style="shape=partialRectangle;connectable=0;fillColor=none;top=0;left=0;bottom=0;right=0;align=left;spacingLeft=6;overflow=hidden;fontStyle=1" vertex="1" parent="1">
          <mxGeometry x="1550" y="330" width="150" height="30" as="geometry" />
        </mxCell>
        <mxCell id="zzW63VaopKRDB87rKUMI-107" value="country_id" style="shape=partialRectangle;connectable=0;fillColor=none;top=0;left=0;bottom=0;right=0;align=left;spacingLeft=6;overflow=hidden;fontStyle=1" vertex="1" parent="1">
          <mxGeometry x="1550" y="360" width="150" height="30" as="geometry" />
        </mxCell>
        <mxCell id="zzW63VaopKRDB87rKUMI-110" value="" style="shape=partialRectangle;connectable=0;fillColor=none;top=0;left=0;bottom=0;right=0;editable=1;overflow=hidden;" vertex="1" parent="1">
          <mxGeometry x="1520" y="330" width="30" height="30" as="geometry" />
        </mxCell>
        <mxCell id="zzW63VaopKRDB87rKUMI-111" value="FK" style="shape=partialRectangle;connectable=0;fillColor=none;top=0;left=0;bottom=0;right=0;editable=1;overflow=hidden;fontStyle=1" vertex="1" parent="1">
          <mxGeometry x="1520" y="360" width="30" height="30" as="geometry" />
        </mxCell>
        <mxCell id="zzW63VaopKRDB87rKUMI-112" value="hire_date" style="shape=partialRectangle;connectable=0;fillColor=none;top=0;left=0;bottom=0;right=0;align=left;spacingLeft=6;overflow=hidden;fontStyle=1" vertex="1" parent="1">
          <mxGeometry x="1250" y="550" width="150" height="30" as="geometry" />
        </mxCell>
        <mxCell id="zzW63VaopKRDB87rKUMI-113" value="job_id" style="shape=partialRectangle;connectable=0;fillColor=none;top=0;left=0;bottom=0;right=0;align=left;spacingLeft=6;overflow=hidden;fontStyle=1" vertex="1" parent="1">
          <mxGeometry x="1250" y="580" width="150" height="30" as="geometry" />
        </mxCell>
        <mxCell id="zzW63VaopKRDB87rKUMI-114" value="salary" style="shape=partialRectangle;connectable=0;fillColor=none;top=0;left=0;bottom=0;right=0;align=left;spacingLeft=6;overflow=hidden;fontStyle=1" vertex="1" parent="1">
          <mxGeometry x="1250" y="610" width="150" height="30" as="geometry" />
        </mxCell>
        <mxCell id="zzW63VaopKRDB87rKUMI-115" value="commission_pct" style="shape=partialRectangle;connectable=0;fillColor=none;top=0;left=0;bottom=0;right=0;align=left;spacingLeft=6;overflow=hidden;fontStyle=1" vertex="1" parent="1">
          <mxGeometry x="1250" y="640" width="150" height="30" as="geometry" />
        </mxCell>
        <mxCell id="zzW63VaopKRDB87rKUMI-116" value="manager_id" style="shape=partialRectangle;connectable=0;fillColor=none;top=0;left=0;bottom=0;right=0;align=left;spacingLeft=6;overflow=hidden;fontStyle=1" vertex="1" parent="1">
          <mxGeometry x="1250" y="670" width="150" height="30" as="geometry" />
        </mxCell>
        <mxCell id="zzW63VaopKRDB87rKUMI-117" value="department_id" style="shape=partialRectangle;connectable=0;fillColor=none;top=0;left=0;bottom=0;right=0;align=left;spacingLeft=6;overflow=hidden;fontStyle=1" vertex="1" parent="1">
          <mxGeometry x="1250" y="700" width="150" height="30" as="geometry" />
        </mxCell>
        <mxCell id="zzW63VaopKRDB87rKUMI-118" value="FK" style="shape=partialRectangle;connectable=0;fillColor=none;top=0;left=0;bottom=0;right=0;editable=1;overflow=hidden;fontStyle=1" vertex="1" parent="1">
          <mxGeometry x="1220" y="700" width="30" height="30" as="geometry" />
        </mxCell>
        <mxCell id="zzW63VaopKRDB87rKUMI-119" value="" style="shape=partialRectangle;connectable=0;fillColor=none;top=0;left=0;bottom=0;right=0;editable=1;overflow=hidden;" vertex="1" parent="1">
          <mxGeometry x="1220" y="550" width="30" height="30" as="geometry" />
        </mxCell>
        <mxCell id="zzW63VaopKRDB87rKUMI-120" value="FK" style="shape=partialRectangle;connectable=0;fillColor=none;top=0;left=0;bottom=0;right=0;editable=1;overflow=hidden;fontStyle=1" vertex="1" parent="1">
          <mxGeometry x="1220" y="580" width="30" height="30" as="geometry" />
        </mxCell>
        <mxCell id="zzW63VaopKRDB87rKUMI-121" value="" style="shape=partialRectangle;connectable=0;fillColor=none;top=0;left=0;bottom=0;right=0;editable=1;overflow=hidden;" vertex="1" parent="1">
          <mxGeometry x="1220" y="610" width="30" height="30" as="geometry" />
        </mxCell>
        <mxCell id="zzW63VaopKRDB87rKUMI-122" value="" style="shape=partialRectangle;connectable=0;fillColor=none;top=0;left=0;bottom=0;right=0;editable=1;overflow=hidden;" vertex="1" parent="1">
          <mxGeometry x="1220" y="640" width="30" height="30" as="geometry" />
        </mxCell>
        <mxCell id="zzW63VaopKRDB87rKUMI-123" value="FK" style="shape=partialRectangle;connectable=0;fillColor=none;top=0;left=0;bottom=0;right=0;editable=1;overflow=hidden;fontStyle=1" vertex="1" parent="1">
          <mxGeometry x="1220" y="670" width="30" height="30" as="geometry" />
        </mxCell>
        <mxCell id="zzW63VaopKRDB87rKUMI-124" value="department_id" style="shape=partialRectangle;connectable=0;fillColor=none;top=0;left=0;bottom=0;right=0;align=left;spacingLeft=6;overflow=hidden;fontStyle=1" vertex="1" parent="1">
          <mxGeometry x="970" y="430" width="150" height="30" as="geometry" />
        </mxCell>
        <mxCell id="zzW63VaopKRDB87rKUMI-125" value="FK" style="shape=partialRectangle;connectable=0;fillColor=none;top=0;left=0;bottom=0;right=0;editable=1;overflow=hidden;fontStyle=1" vertex="1" parent="1">
          <mxGeometry x="940" y="430" width="30" height="30" as="geometry" />
        </mxCell>
        <mxCell id="zzW63VaopKRDB87rKUMI-129" value="" style="edgeStyle=orthogonalEdgeStyle;fontSize=12;html=1;endArrow=ERoneToMany;entryX=1;entryY=0.5;entryDx=0;entryDy=0;" edge="1" parent="1" source="zzW63VaopKRDB87rKUMI-63" target="zzW63VaopKRDB87rKUMI-57">
          <mxGeometry width="100" height="100" relative="1" as="geometry">
            <mxPoint x="1450" y="190" as="sourcePoint" />
            <mxPoint x="1550" y="90" as="targetPoint" />
          </mxGeometry>
        </mxCell>
        <mxCell id="zzW63VaopKRDB87rKUMI-130" value="" style="fontSize=12;html=1;endArrow=ERoneToMany;edgeStyle=orthogonalEdgeStyle;exitX=0;exitY=0.5;exitDx=0;exitDy=0;entryX=0.5;entryY=0;entryDx=0;entryDy=0;" edge="1" parent="1" source="zzW63VaopKRDB87rKUMI-54" target="zzW63VaopKRDB87rKUMI-37">
          <mxGeometry width="100" height="100" relative="1" as="geometry">
            <mxPoint x="990" y="90" as="sourcePoint" />
            <mxPoint x="938" y="298" as="targetPoint" />
          </mxGeometry>
        </mxCell>
        <mxCell id="zzW63VaopKRDB87rKUMI-131" value="" style="edgeStyle=orthogonalEdgeStyle;fontSize=12;html=1;endArrow=ERoneToMany;exitX=0.5;exitY=0;exitDx=0;exitDy=0;" edge="1" parent="1" source="zzW63VaopKRDB87rKUMI-24">
          <mxGeometry width="100" height="100" relative="1" as="geometry">
            <mxPoint x="1020" y="520" as="sourcePoint" />
            <mxPoint x="1030" y="460" as="targetPoint" />
          </mxGeometry>
        </mxCell>
        <mxCell id="zzW63VaopKRDB87rKUMI-132" value="" style="edgeStyle=entityRelationEdgeStyle;fontSize=12;html=1;endArrow=ERoneToMany;exitX=1;exitY=0.5;exitDx=0;exitDy=0;" edge="1" parent="1" source="zzW63VaopKRDB87rKUMI-31">
          <mxGeometry width="100" height="100" relative="1" as="geometry">
            <mxPoint x="1020" y="520" as="sourcePoint" />
            <mxPoint x="1220" y="600" as="targetPoint" />
          </mxGeometry>
        </mxCell>
        <mxCell id="zzW63VaopKRDB87rKUMI-133" value="" style="edgeStyle=orthogonalEdgeStyle;fontSize=12;html=1;endArrow=ERoneToMany;entryX=1;entryY=0.5;entryDx=0;entryDy=0;exitX=0;exitY=0.5;exitDx=0;exitDy=0;" edge="1" parent="1" source="zzW63VaopKRDB87rKUMI-83" target="zzW63VaopKRDB87rKUMI-44">
          <mxGeometry width="100" height="100" relative="1" as="geometry">
            <mxPoint x="1130" y="520" as="sourcePoint" />
            <mxPoint x="1160" y="410" as="targetPoint" />
          </mxGeometry>
        </mxCell>
        <mxCell id="zzW63VaopKRDB87rKUMI-142" value="" style="edgeStyle=orthogonalEdgeStyle;fontSize=12;html=1;endArrow=ERoneToMany;exitX=0.5;exitY=0;exitDx=0;exitDy=0;" edge="1" parent="1" source="zzW63VaopKRDB87rKUMI-11">
          <mxGeometry width="100" height="100" relative="1" as="geometry">
            <mxPoint x="1480" y="520" as="sourcePoint" />
            <mxPoint x="1610" y="390" as="targetPoint" />
          </mxGeometry>
        </mxCell>
        <mxCell id="zzW63VaopKRDB87rKUMI-144" value="" style="edgeStyle=orthogonalEdgeStyle;fontSize=12;html=1;endArrow=ERoneToMany;exitX=0.5;exitY=0;exitDx=0;exitDy=0;" edge="1" parent="1" source="zzW63VaopKRDB87rKUMI-89">
          <mxGeometry width="100" height="100" relative="1" as="geometry">
            <mxPoint x="1480" y="520" as="sourcePoint" />
            <mxPoint x="1610" y="560" as="targetPoint" />
          </mxGeometry>
        </mxCell>
        <mxCell id="zzW63VaopKRDB87rKUMI-145" value="Ali Alnajjar" style="text;html=1;align=center;verticalAlign=middle;resizable=0;points=[];autosize=1;fontColor=#000000;" vertex="1" parent="1">
          <mxGeometry x="865" y="40" width="70" height="20" as="geometry" />
        </mxCell>
        <mxCell id="zzW63VaopKRDB87rKUMI-146" value="11/26/2020" style="text;html=1;align=center;verticalAlign=middle;resizable=0;points=[];autosize=1;fontColor=#000000;" vertex="1" parent="1">
          <mxGeometry x="865" y="60" width="70" height="20" as="geometry" />
        </mxCell>
      </root>
    </mxGraphModel>
  </diagram>
</mxfile>
